<svg width="46" height="26" viewBox="0 0 46 26" fill="none" xmlns="http://www.w3.org/2000/svg">
<path d="M22.9865 7.0049L23.1317 7.25H23.4166H45.4166V18.75H41.75H41.25V19.25V25H29.75V19.25V18.75H29.25H23.4166H23.1317L22.9865 18.9951C21.9187 20.7971 20.4683 22.2484 18.6282 23.3525C16.7985 24.4503 14.7871 25 12.5833 25C9.24219 25 6.41842 23.8363 4.0827 21.5006C1.74698 19.1649 0.583313 16.3411 0.583313 13C0.583313 9.65887 1.74698 6.83511 4.0827 4.49939C6.41842 2.16366 9.24219 1 12.5833 1C14.7871 1 16.7985 1.54969 18.6282 2.6475C20.4683 3.7516 21.9187 5.20291 22.9865 7.0049ZM20.9974 15.5833H32.9166V21.3333V21.8333H33.4166H37.5833H38.0833V21.3333V15.5833H41.75H42.25V15.0833V10.9167V10.4167H41.75H20.9974C20.6236 9.07145 19.7603 7.74139 18.4599 6.42469C16.962 4.90806 14.9856 4.16667 12.5833 4.16667C10.158 4.16667 8.06931 5.03607 6.34434 6.76103C4.61938 8.48599 3.74998 10.5747 3.74998 13C3.74998 15.4253 4.61938 17.514 6.34434 19.239C8.06931 20.9639 10.158 21.8333 12.5833 21.8333C14.9856 21.8333 16.962 21.0919 18.4599 19.5753C19.7603 18.2586 20.6236 16.9285 20.9974 15.5833ZM15.1725 15.5892C14.4495 16.3121 13.5955 16.6667 12.5833 16.6667C11.5711 16.6667 10.7171 16.3121 9.99416 15.5892C9.27121 14.8662 8.91665 14.0122 8.91665 13C8.91665 11.9878 9.27121 11.1338 9.99416 10.4108C10.7171 9.68789 11.5711 9.33333 12.5833 9.33333C13.5955 9.33333 14.4495 9.68789 15.1725 10.4108C15.8954 11.1338 16.25 11.9878 16.25 13C16.25 14.0122 15.8954 14.8662 15.1725 15.5892Z" fill="#1C1B1F" stroke="black"/>
</svg>
