<svg width="23" height="23" viewBox="0 0 23 23" fill="none" xmlns="http://www.w3.org/2000/svg">
<path d="M16.375 14H15.3875L15.0375 13.6625C16.2625 12.2375 17 10.3875 17 8.375C17 3.8875 13.3625 0.25 8.875 0.25C4.3875 0.25 0.75 3.8875 0.75 8.375C0.75 12.8625 4.3875 16.5 8.875 16.5C10.8875 16.5 12.7375 15.7625 14.1625 14.5375L14.5 14.8875V15.875L20.75 22.1125L22.6125 20.25L16.375 14ZM8.875 14C5.7625 14 3.25 11.4875 3.25 8.375C3.25 5.2625 5.7625 2.75 8.875 2.75C11.9875 2.75 14.5 5.2625 14.5 8.375C14.5 11.4875 11.9875 14 8.875 14Z" fill="black"/>
</svg>
